<svg width="188" height="48" viewBox="0 0 188 48" fill="none" xmlns="http://www.w3.org/2000/svg">
<path d="M81.2 31.0811L74.116 11.4811H70.252L63.14 31.0811H66.64L68.012 27.1331H76.356L77.728 31.0811H81.2ZM72.184 15.2611L75.292 24.1091H69.076L72.184 15.2611ZM90.5702 11.1171C86.4262 10.8651 84.2422 12.9651 84.2422 16.8011V17.0811H82.1142V19.9931H84.2422V31.0811H87.2662V19.9931H90.5702V17.0811H87.2662V16.8011C87.2662 14.7571 88.3582 13.8331 90.5702 14.0291V11.1171ZM95.9236 17.0811H92.8996V31.0811H95.9236V24.0251C95.9236 22.5971 96.3436 21.5611 97.2116 20.9451C98.0796 20.3011 99.0876 20.0211 100.236 20.1051V16.8291C98.1356 16.8291 96.6796 17.6971 95.9236 19.4331V17.0811ZM105.886 14.4211C106.67 13.6371 106.67 12.4611 105.914 11.7051C105.158 10.9211 103.926 10.9211 103.17 11.7051C102.414 12.4611 102.414 13.6371 103.17 14.4211C103.954 15.1771 105.13 15.1771 105.886 14.4211ZM106.054 31.0811V17.0811H103.03V31.0811H106.054ZM121.213 19.0691C120.065 17.5011 118.441 16.7171 116.313 16.7171C114.381 16.7171 112.757 17.4171 111.385 18.8451C110.013 20.2731 109.341 22.0091 109.341 24.0811C109.341 26.1251 110.013 27.8891 111.385 29.3171C112.757 30.7451 114.381 31.4451 116.313 31.4451C118.441 31.4451 120.065 30.6611 121.213 29.0651V31.0811H124.237V17.0811H121.213V19.0691ZM113.625 27.3011C112.785 26.4331 112.365 25.3691 112.365 24.0811C112.365 22.7931 112.785 21.7291 113.625 20.8891C114.465 20.0211 115.529 19.6011 116.789 19.6011C118.049 19.6011 119.113 20.0211 119.953 20.8891C120.793 21.7291 121.213 22.7931 121.213 24.0811C121.213 25.3691 120.793 26.4331 119.953 27.3011C119.113 28.1411 118.049 28.5611 116.789 28.5611C115.529 28.5611 114.465 28.1411 113.625 27.3011ZM135.686 16.7171C133.698 16.7171 132.27 17.4451 131.346 18.8731V17.0811H128.322V31.0811H131.346V23.5771C131.346 20.8611 132.774 19.5451 134.902 19.5451C136.834 19.5451 138.038 20.6931 138.038 22.7931V31.0811H141.062V22.4851C141.062 18.9011 138.906 16.7171 135.686 16.7171ZM147.594 20.9451C147.594 19.9651 148.49 19.4611 149.638 19.4611C150.898 19.4611 151.794 19.9931 152.27 21.0571L154.818 19.6291C153.838 17.8091 151.962 16.7171 149.638 16.7171C148.182 16.7171 146.95 17.1091 145.97 17.8931C144.99 18.6771 144.514 19.7131 144.514 21.0011C144.458 23.9411 147.286 24.7811 149.386 25.3131C150.87 25.6771 152.046 26.2091 152.046 27.1051C152.046 28.1411 151.262 28.6731 149.666 28.6731C148.07 28.6731 147.034 28.0011 146.558 26.6571L143.954 28.1691C144.85 30.2131 146.894 31.4451 149.666 31.4451C151.234 31.4451 152.522 31.0531 153.558 30.2971C154.594 29.5411 155.126 28.4771 155.126 27.1331C155.182 24.1371 152.382 23.2411 150.226 22.7651C148.77 22.3451 147.594 21.8691 147.594 20.9451ZM164.172 23.9411L170.332 17.0811H166.636L161.204 23.2691V11.4811H158.18V31.0811H161.204V24.6131L166.944 31.0811H170.556L164.172 23.9411ZM183.117 19.0691C181.969 17.5011 180.345 16.7171 178.217 16.7171C176.285 16.7171 174.661 17.4171 173.289 18.8451C171.917 20.2731 171.245 22.0091 171.245 24.0811C171.245 26.1251 171.917 27.8891 173.289 29.3171C174.661 30.7451 176.285 31.4451 178.217 31.4451C180.345 31.4451 181.969 30.6611 183.117 29.0651V31.0811H186.141V17.0811H183.117V19.0691ZM175.529 27.3011C174.689 26.4331 174.269 25.3691 174.269 24.0811C174.269 22.7931 174.689 21.7291 175.529 20.8891C176.369 20.0211 177.433 19.6011 178.693 19.6011C179.953 19.6011 181.017 20.0211 181.857 20.8891C182.697 21.7291 183.117 22.7931 183.117 24.0811C183.117 25.3691 182.697 26.4331 181.857 27.3011C181.017 28.1411 179.953 28.5611 178.693 28.5611C177.433 28.5611 176.369 28.1411 175.529 27.3011Z" fill="white"/>
<circle cx="16" cy="24" r="16" fill="#98C3E8"/>
<circle cx="32" cy="24" r="15" fill="white" stroke="#316099" stroke-width="2"/>
<path d="M38.3 31L33.38 17H29.96L25.06 31H28.04L28.88 28.48H34.46L35.3 31H38.3ZM31.68 20.18L33.6 25.9H29.76L31.68 20.18Z" fill="#316099"/>
</svg>
